<?xml version="1.0" encoding="UTF-8"?>
<svg id="Calque_2" data-name="Calque 2" xmlns="http://www.w3.org/2000/svg" viewBox="0 0 931.93 200.42">
  <defs>
    <style>
      .cls-1 {
        fill: #03c;
      }
    </style>
  </defs>
  <g id="Calque_1-2" data-name="Calque 1">
    <g>
      <polygon class="cls-1" points="95.94 125.96 237.58 125.96 237.58 73.48 95.94 73.48 95.94 47.24 239.7 47.24 271.06 62.63 283.42 0 0 0 21.96 22.14 21.96 200.42 245.59 200.42 288.69 150.09 95.94 150.09 95.94 125.96"/>
      <path class="cls-1" d="M533.46,0l25.64,27.62-78.49,112.19C420.41,53.79,383.16,0,383.16,0h-89l137.54,200.42h92.05L660.41,0h-126.96.01Z"/>
      <polygon class="cls-1" points="904.54 0 690.55 0 669.77 30.72 725.21 60 853.37 60 853.37 150.41 741.71 150.41 741.71 91.76 670.76 53.91 663.25 53.91 663.25 186.73 690.55 200.42 904.54 200.42 931.93 186.73 931.93 14.09 904.54 0"/>
    </g>
  </g>
</svg>