<?xml version="1.0" encoding="UTF-8"?>
<svg id="Calque_2" data-name="Calque 2" xmlns="http://www.w3.org/2000/svg" viewBox="0 0 720.82 155.02">
  <defs>
    <style>
      .cls-1 {
        fill: #e8ad1d;
      }
    </style>
  </defs>
  <g id="Calque_1-2" data-name="Calque 1">
    <g>
      <polygon class="cls-1" points="74.21 97.43 183.76 97.43 183.76 56.83 74.21 56.83 74.21 36.54 185.4 36.54 209.66 48.44 219.22 0 0 0 16.99 17.12 16.99 155.02 189.96 155.02 223.29 116.09 74.21 116.09 74.21 97.43"/>
      <path class="cls-1" d="M412.62,0l19.83,21.36-60.71,86.78C325.18,41.61,296.36,0,296.36,0h-68.84l106.38,155.02h71.2L510.81,0h-98.2,0Z"/>
      <polygon class="cls-1" points="699.64 0 534.12 0 518.05 23.76 560.93 46.41 660.06 46.41 660.06 116.34 573.69 116.34 573.69 70.97 518.81 41.7 513 41.7 513 144.43 534.12 155.02 699.64 155.02 720.82 144.43 720.82 10.9 699.64 0"/>
    </g>
  </g>
</svg>