<?xml version="1.0" encoding="UTF-8"?>
<svg id="Calque_2" data-name="Calque 2" xmlns="http://www.w3.org/2000/svg" viewBox="0 0 1367.03 155.02">
  <defs>
    <style>
      .cls-1 {
        fill: #e8ad1d;
      }
    </style>
  </defs>
  <g id="Calque_1-2" data-name="Calque 1">
    <g>
      <polygon class="cls-1" points="74.21 97.43 183.76 97.43 183.76 56.83 74.21 56.83 74.21 36.54 185.4 36.54 209.66 48.44 219.22 0 0 0 16.99 17.12 16.99 155.02 189.96 155.02 223.29 116.09 74.21 116.09 74.21 97.43"/>
      <path class="cls-1" d="M412.62,0l19.83,21.36-60.71,86.78C325.18,41.61,296.36,0,296.36,0h-68.84l106.38,155.02h71.2L510.81,0h-98.2,0Z"/>
      <polygon class="cls-1" points="699.64 0 534.12 0 518.05 23.76 560.93 46.41 660.06 46.41 660.06 116.34 573.69 116.34 573.69 70.97 518.81 41.7 513 41.7 513 144.43 534.12 155.02 699.64 155.02 720.82 144.43 720.82 10.9 699.64 0"/>
    </g>
    <g>
      <g>
        <path class="cls-1" d="M789.25,53.11l-16.8-26.49h11.24l10.43,17.55,10.62-17.55h10.93l-16.8,26.3v17.43h-9.62s0-17.24,0-17.24Z"/>
        <path class="cls-1" d="M842.91,71.1c-3.37,0-6.48-.59-9.31-1.78-2.83-1.19-5.28-2.79-7.34-4.81-2.06-2.02-3.67-4.39-4.81-7.12-1.15-2.73-1.72-5.65-1.72-8.78v-.12c0-3.12.58-6.05,1.75-8.78,1.17-2.73,2.78-5.12,4.84-7.18s4.52-3.69,7.37-4.87c2.85-1.19,5.97-1.78,9.34-1.78s6.48.59,9.31,1.78c2.83,1.19,5.28,2.79,7.34,4.81s3.66,4.39,4.81,7.12,1.72,5.65,1.72,8.78v.12c0,3.12-.58,6.05-1.75,8.78-1.17,2.73-2.78,5.12-4.84,7.18s-4.52,3.69-7.37,4.87c-2.85,1.19-5.97,1.78-9.34,1.78ZM843.03,62.23c1.92,0,3.69-.35,5.31-1.06s3.01-1.69,4.15-2.94c1.15-1.25,2.04-2.7,2.69-4.34s.97-3.4.97-5.28v-.12c0-1.87-.32-3.64-.97-5.31s-1.56-3.12-2.75-4.37-2.59-2.24-4.22-2.97c-1.62-.73-3.4-1.09-5.31-1.09s-3.74.35-5.34,1.06c-1.6.71-2.98,1.69-4.12,2.94-1.15,1.25-2.04,2.7-2.69,4.34-.65,1.65-.97,3.4-.97,5.28v.12c0,1.87.32,3.64.97,5.31s1.56,3.12,2.75,4.37,2.58,2.24,4.19,2.97c1.6.73,3.38,1.09,5.34,1.09Z"/>
        <path class="cls-1" d="M893.01,71.04c-5.87,0-10.49-1.62-13.87-4.87-3.37-3.25-5.06-8.1-5.06-14.56v-24.99h9.62v24.74c0,3.58.83,6.28,2.5,8.09s3.98,2.72,6.93,2.72,5.27-.87,6.93-2.62c1.67-1.75,2.5-4.37,2.5-7.87v-25.05h9.62v24.68c0,3.33-.45,6.23-1.34,8.68-.9,2.46-2.18,4.51-3.84,6.15-1.67,1.65-3.69,2.87-6.06,3.69-2.37.81-5.02,1.22-7.93,1.22h0Z"/>
        <path class="cls-1" d="M922,26.62h19.99c5.54,0,9.79,1.48,12.74,4.44,2.5,2.5,3.75,5.83,3.75,10v.12c0,3.54-.86,6.42-2.59,8.65-1.73,2.23-3.99,3.86-6.78,4.9l10.68,15.62h-11.24l-9.37-13.99h-7.56v13.99h-9.62V26.62h0ZM941.36,47.86c2.37,0,4.2-.56,5.47-1.69,1.27-1.12,1.91-2.62,1.91-4.5v-.12c0-2.08-.67-3.64-2-4.68s-3.19-1.56-5.56-1.56h-9.56v12.56h9.75-.01Z"/>
        <path class="cls-1" d="M985.9,26.62h32.92v8.56h-23.43v8.87h20.61v8.56h-20.61v9.18h23.74v8.56h-33.23V26.62h0Z"/>
        <path class="cls-1" d="M1024.01,26.62h10.62l11.43,30.8,11.43-30.8h10.37l-17.68,44.04h-8.5l-17.68-44.04h.01Z"/>
        <path class="cls-1" d="M1095.85,71.1c-3.37,0-6.48-.59-9.31-1.78s-5.28-2.79-7.34-4.81-3.67-4.39-4.81-7.12c-1.15-2.73-1.72-5.65-1.72-8.78v-.12c0-3.12.58-6.05,1.75-8.78,1.17-2.73,2.78-5.12,4.84-7.18s4.52-3.69,7.37-4.87c2.85-1.19,5.97-1.78,9.34-1.78s6.48.59,9.31,1.78,5.28,2.79,7.34,4.81,3.66,4.39,4.81,7.12,1.72,5.65,1.72,8.78v.12c0,3.12-.58,6.05-1.75,8.78-1.17,2.73-2.78,5.12-4.84,7.18s-4.52,3.69-7.37,4.87c-2.85,1.19-5.97,1.78-9.34,1.78ZM1095.97,62.23c1.92,0,3.69-.35,5.31-1.06s3.01-1.69,4.15-2.94c1.15-1.25,2.04-2.7,2.69-4.34s.97-3.4.97-5.28v-.12c0-1.87-.32-3.64-.97-5.31s-1.56-3.12-2.75-4.37-2.59-2.24-4.22-2.97c-1.62-.73-3.4-1.09-5.31-1.09s-3.74.35-5.34,1.06-2.98,1.69-4.12,2.94c-1.15,1.25-2.04,2.7-2.69,4.34-.65,1.65-.97,3.4-.97,5.28v.12c0,1.87.32,3.64.97,5.31s1.56,3.12,2.75,4.37,2.58,2.24,4.19,2.97c1.6.73,3.38,1.09,5.34,1.09Z"/>
        <path class="cls-1" d="M1127.71,26.62h9.62v35.04h21.8v8.68h-31.42V26.61h0Z"/>
        <path class="cls-1" d="M1184.62,71.04c-5.87,0-10.49-1.62-13.87-4.87-3.37-3.25-5.06-8.1-5.06-14.56v-24.99h9.62v24.74c0,3.58.83,6.28,2.5,8.09s3.98,2.72,6.93,2.72,5.27-.87,6.93-2.62c1.67-1.75,2.5-4.37,2.5-7.87v-25.05h9.62v24.68c0,3.33-.45,6.23-1.34,8.68-.9,2.46-2.18,4.51-3.84,6.15-1.67,1.65-3.69,2.87-6.06,3.69-2.37.81-5.02,1.22-7.93,1.22h0Z"/>
        <path class="cls-1" d="M1223.79,35.49h-13.31v-8.87h36.23v8.87h-13.31v34.86h-9.62v-34.86h0Z"/>
        <path class="cls-1" d="M1254.52,26.62h9.62v43.73h-9.62V26.62Z"/>
        <path class="cls-1" d="M1296.31,71.1c-3.37,0-6.48-.59-9.31-1.78s-5.28-2.79-7.34-4.81-3.67-4.39-4.81-7.12-1.72-5.65-1.72-8.78v-.12c0-3.12.58-6.05,1.75-8.78,1.17-2.73,2.78-5.12,4.84-7.18s4.52-3.69,7.37-4.87c2.85-1.19,5.97-1.78,9.34-1.78s6.47.59,9.31,1.78c2.83,1.19,5.28,2.79,7.34,4.81s3.66,4.39,4.81,7.12c1.14,2.73,1.72,5.65,1.72,8.78v.12c0,3.12-.58,6.05-1.75,8.78-1.17,2.73-2.78,5.12-4.84,7.18s-4.52,3.69-7.37,4.87c-2.85,1.19-5.97,1.78-9.34,1.78ZM1296.44,62.23c1.92,0,3.69-.35,5.31-1.06s3.01-1.69,4.15-2.94,2.04-2.7,2.69-4.34c.64-1.64.97-3.4.97-5.28v-.12c0-1.87-.32-3.64-.97-5.31-.65-1.67-1.56-3.12-2.75-4.37s-2.59-2.24-4.22-2.97c-1.62-.73-3.39-1.09-5.31-1.09s-3.74.35-5.34,1.06c-1.6.71-2.98,1.69-4.12,2.94s-2.04,2.7-2.69,4.34c-.65,1.65-.97,3.4-.97,5.28v.12c0,1.87.32,3.64.97,5.31.64,1.67,1.56,3.12,2.75,4.37s2.58,2.24,4.19,2.97,3.38,1.09,5.34,1.09h0Z"/>
        <path class="cls-1" d="M1328.17,26.62h8.87l20.49,26.92v-26.92h9.5v43.73h-8.18l-21.18-27.8v27.8h-9.5V26.62Z"/>
      </g>
      <path class="cls-1" d="M772.45,85.43h17.87c2.62,0,4.97.37,7.03,1.09,2.06.73,3.81,1.76,5.25,3.09s2.54,2.93,3.31,4.78c.77,1.85,1.16,3.91,1.16,6.15v.12c0,2.54-.46,4.77-1.37,6.68-.92,1.92-2.18,3.52-3.78,4.81-1.6,1.29-3.48,2.26-5.62,2.9-2.15.65-4.45.97-6.9.97h-7.31v13.12h-9.62v-43.73l-.02.02ZM789.7,107.48c2.41,0,4.29-.63,5.62-1.91,1.33-1.27,2-2.84,2-4.72v-.12c0-2.17-.7-3.81-2.09-4.93-1.4-1.12-3.3-1.69-5.72-1.69h-7.43v13.37h7.62Z"/>
      <path class="cls-1" d="M880.77,85.1h8.87l18.74,44.04h-10.06l-4-9.81h-18.49l-4,9.81h-9.81l18.74-44.04h.01ZM890.89,110.83l-5.81-14.18-5.81,14.18h11.62Z"/>
      <path class="cls-1" d="M963.33,85.41h19.99c5.54,0,9.79,1.48,12.74,4.44,2.5,2.5,3.75,5.83,3.75,10v.12c0,3.54-.87,6.42-2.59,8.65-1.73,2.23-3.99,3.86-6.78,4.9l10.68,15.62h-11.24l-9.37-13.99h-7.56v13.99h-9.62v-43.73h0ZM982.7,106.65c2.37,0,4.2-.56,5.47-1.69,1.27-1.12,1.91-2.62,1.91-4.5v-.12c0-2.08-.67-3.64-2-4.68s-3.19-1.56-5.56-1.56h-9.56v12.56h9.75,0Z"/>
      <path class="cls-1" d="M1069.38,94.28h-13.31v-8.87h36.23v8.87h-13.31v34.86h-9.62v-34.86h.01Z"/>
      <path class="cls-1" d="M1147.25,85.41h8.87l20.49,26.92v-26.92h9.5v43.73h-8.18l-21.18-27.8v27.8h-9.5v-43.73Z"/>
      <path class="cls-1" d="M1241.06,85.41h32.92v8.56h-23.43v8.87h20.61v8.56h-20.61v9.18h23.74v8.56h-33.23v-43.73Z"/>
      <path class="cls-1" d="M1329.24,85.41h19.99c5.54,0,9.79,1.48,12.74,4.44,2.5,2.5,3.75,5.83,3.75,10v.12c0,3.54-.87,6.42-2.59,8.65-1.73,2.23-3.99,3.86-6.78,4.9l10.68,15.62h-11.24l-9.37-13.99h-7.56v13.99h-9.62v-43.73h0ZM1348.61,106.65c2.37,0,4.2-.56,5.47-1.69,1.27-1.12,1.91-2.62,1.91-4.5v-.12c0-2.08-.67-3.64-2-4.68s-3.19-1.56-5.56-1.56h-9.56v12.56h9.75,0Z"/>
    </g>
    <rect class="cls-1" x="742.39" y="12.92" width="8.5" height="129.17"/>
  </g>
</svg>