<?xml version="1.0" encoding="UTF-8"?><svg id="Calque_2" xmlns="http://www.w3.org/2000/svg" viewBox="0 0 520.04 186.4"><defs><style>.cls-1{fill:#03c;}.cls-2{fill:#33c;}</style></defs><g id="Calque_5"><polygon class="cls-2" points="53.54 70.29 132.58 70.29 132.58 41 53.54 41 53.54 26.36 133.76 26.36 151.26 34.95 158.15 0 0 0 12.25 12.35 12.25 111.84 137.04 111.84 161.1 83.75 53.54 83.75 53.54 70.29"/><path class="cls-2" d="M297.68,0l14.31,15.41-43.8,62.6C234.6,30.02,213.81,0,213.81,0h-49.66l76.75,111.84h51.37L368.52,0h-70.85,0Z"/><polygon class="cls-2" points="504.75 0 385.34 0 373.75 17.14 404.68 33.48 476.2 33.48 476.2 83.93 413.89 83.93 413.89 51.2 374.3 30.08 370.11 30.08 370.11 104.2 385.34 111.84 504.75 111.84 520.04 104.2 520.04 7.86 504.75 0"/></g><g id="Calque_8"><path class="cls-1" d="M130.52,144.46h36.41v9.13h-36.41v-9.13ZM141.45,155.78h14.54v30.63h-14.54v-30.63Z"/><path class="cls-1" d="M182.36,186.4v-41.94h13.97v41.94h-13.97ZM198.54,152.84v-8.38h15.96l8.41,8.38v12.58l-6.45,6.45-13.05,1.96h-4.87v-8.12h10.49v-12.86h-10.49ZM224.33,186.4h-14.92l-6-12.58,13.05-1.96,7.87,14.54Z"/><path class="cls-1" d="M253.76,178.03h5.15v8.38h-10.75l-8.41-8.38v-33.56h14v33.56ZM280.28,178.03l-8.38,8.38h-10.78v-8.38h5.18v-33.56h13.97v33.56Z"/><path class="cls-1" d="M309.59,186.4h-5.56l-8.41-8.38v-25.19l8.41-8.38h5.56v41.94ZM311.8,152.84v-8.38h14.89l8.38,8.38v8.44h-13.97v-8.44h-9.29ZM311.8,186.4v-8.38h9.29v-6.13h13.97v6.13l-8.38,8.38h-14.89Z"/><path class="cls-1" d="M350.4,186.4v-41.94h13.97v41.94h-13.97ZM366.52,180.46v-20.39l9.8-15.61h14.54l-24.34,36ZM391.52,186.4h-15.11l-4.74-9.77,8.28-12.42,11.57,22.19Z"/><polygon class="cls-1" points="53.54 70.29 132.58 70.29 132.58 41 53.54 41 53.54 26.36 133.76 26.36 151.26 34.95 158.15 0 0 0 12.25 12.35 12.25 111.84 137.04 111.84 161.1 83.75 53.54 83.75 53.54 70.29"/><path class="cls-1" d="M297.68,0l14.31,15.41-43.8,62.6C234.6,30.02,213.81,0,213.81,0h-49.66l76.75,111.84h51.37L368.52,0h-70.85,0Z"/><polygon class="cls-1" points="504.75 0 385.34 0 373.75 17.14 404.68 33.48 476.2 33.48 476.2 83.93 413.89 83.93 413.89 51.2 374.3 30.08 370.11 30.08 370.11 104.2 385.34 111.84 504.75 111.84 520.04 104.2 520.04 7.86 504.75 0"/><polygon class="cls-1" points="53.91 131.22 466.33 131.22 478.36 125.09 41.67 125.09 53.91 131.22"/></g></svg>