<?xml version="1.0" encoding="UTF-8"?>
<svg id="Calque_2" data-name="Calque 2" xmlns="http://www.w3.org/2000/svg" viewBox="0 0 557.36 181.92">
  <defs>
    <style>
      .cls-1 {
        fill: #03c;
      }
    </style>
  </defs>
  <g id="Calque_1-2" data-name="Calque 1">
    <g>
      <polygon class="cls-1" points="57.38 114.24 142.12 114.24 142.12 66.62 57.38 66.62 57.38 42.81 143.36 42.81 162.15 56.77 169.5 0 0 0 13.15 20.06 13.15 181.8 146.92 181.8 172.67 136.17 57.38 136.17 57.38 114.24"/>
      <path class="cls-1" d="M319.04,0l15.31,25.1-46.94,101.81C251.38,48.91,229.12.12,229.12.12h-53.2l82.27,181.8h55.06L394.98.12h-75.93v-.12Z"/>
      <polygon class="cls-1" points="541.05 0 413 0 400.62 27.8 433.72 54.42 510.43 54.42 510.43 136.41 443.62 136.41 443.62 83.16 401.16 48.91 396.68 48.91 396.68 169.37 413 181.8 541.05 181.8 557.36 169.37 557.36 12.78 541.05 0"/>
    </g>
  </g>
</svg>