<?xml version="1.0" encoding="UTF-8"?>
<svg id="Calque_2" data-name="Calque 2" xmlns="http://www.w3.org/2000/svg" viewBox="0 0 670 670">
  <defs>
    <style>
      .cls-1 {
        fill: #fff;
      }

      .cls-2 {
        fill: #03c;
      }
    </style>
  </defs>
  <g id="Calque_1-2" data-name="Calque 1">
    <circle class="cls-1" cx="335" cy="335" r="335"/>
    <g>
      <polygon class="cls-2" points="139.06 371.65 214.05 371.65 214.05 296.62 139.06 296.62 139.06 259.1 215.21 259.1 231.85 281.01 238.31 191.63 88.24 191.63 99.93 223.16 99.93 478.21 218.3 478.21 241.15 406.17 139.06 406.17 139.06 371.65"/>
      <path class="cls-2" d="M370.77,191.63l13.55,39.57-41.53,160.47c-31.87-122.96-51.62-199.88-51.62-199.88h-47.1l72.87,286.58h48.79l72.34-286.58h-67.2l-.09-.16Z"/>
      <polygon class="cls-2" points="567.33 191.63 453.91 191.63 442.93 235.3 472.24 277.38 540.15 277.38 540.15 406.65 481 406.65 481 322.63 443.46 268.71 439.48 268.71 439.48 458.51 453.91 478.21 567.33 478.21 581.76 458.51 581.76 211.65 567.33 191.63"/>
    </g>
  </g>
</svg>