<?xml version="1.0" encoding="UTF-8"?>
<svg id="Calque_2" data-name="Calque 2" xmlns="http://www.w3.org/2000/svg" viewBox="0 0 280.41 165.51">
  <defs>
    <style>
      .cls-1 {
        fill: none;
        stroke: #000;
        stroke-linecap: round;
        stroke-linejoin: round;
        stroke-width: 7px;
      }
    </style>
  </defs>
  <g id="_Ñëîé_2" data-name="Ñëîé 2">
    <g>
      <line class="cls-1" x1="231.18" y1="136.81" x2="211.44" y2="136.81"/>
      <line class="cls-1" x1="218.69" y1="108.15" x2="234.88" y2="117.91"/>
      <path class="cls-1" d="M84.37,76.13h96.51c12.82,0,23.22,10.39,23.22,23.22v14.04"/>
      <line class="cls-1" x1="137.86" y1="141.17" x2="117.91" y2="141.17"/>
      <circle class="cls-1" cx="181.76" cy="132.51" r="29.4"/>
      <circle class="cls-1" cx="181.76" cy="132.51" r="11.55" transform="translate(11.03 278.96) rotate(-76.72)"/>
      <circle class="cls-1" cx="84.37" cy="124.41" r="37.49" transform="translate(-56.1 177.94) rotate(-76.72)"/>
      <circle class="cls-1" cx="84.37" cy="124.41" r="18.23"/>
      <polyline class="cls-1" points="65.56 78.85 72.47 24.38 135.78 24.38 150.23 75.93"/>
      <rect class="cls-1" x="62.7" y="6.01" width="79.79" height="18.37" rx="7.41" ry="7.41"/>
      <line class="cls-1" x1="104.11" y1="38.88" x2="104.11" y2="74.73"/>
      <path class="cls-1" d="M23.93,111.2l-11.11,2.53c-6.81,1.55-10.76,9.67-8.83,18.15h0c1.93,8.47,9.01,14.09,15.82,12.54l25.52-5.81-10.61-5.22c-4.39-2.16-7.74-6.87-8.84-12.4l-1.94-9.78Z"/>
      <line class="cls-1" x1="64.62" y1="76.14" x2="44.56" y2="25.83"/>
      <line class="cls-1" x1="50.06" y1="108.15" x2="45" y2="78.85"/>
      <path class="cls-1" d="M12.64,113.78L23.73,13.11c1.14-6.34,7.2-10.56,13.54-9.43,5.64,1.01,9.61,5.93,9.61,11.47,0,.68-.06,1.38-.19,2.07l-19.73,79.55"/>
      <path class="cls-1" d="M276.91,162.01h-42.03v-82.1h12.29l2.3,33.27c1.36,19.57,11.43,37.49,27.43,48.83h0Z"/>
    </g>
  </g>
</svg>