<?xml version="1.0" encoding="UTF-8"?>
<svg id="Calque_2" xmlns="http://www.w3.org/2000/svg" version="1.1" viewBox="0 0 338.8 227.3">
  <!-- Generator: Adobe Illustrator 29.4.0, SVG Export Plug-In . SVG Version: 2.1.0 Build 152)  -->
  <defs>
    <style>
      .st0 {
        fill: none;
        stroke: #000;
        stroke-linecap: round;
        stroke-linejoin: round;
        stroke-width: 11px;
      }
    </style>
  </defs>
  <g id="_รรฐ_1">
    <g>
      <line class="st0" x1="5.5" y1="144.6" x2="156.9" y2="144.6"/>
      <line class="st0" x1="50.5" y1="118.9" x2="95.2" y2="118.9"/>
      <line class="st0" x1="85.2" y1="118.9" x2="85.2" y2="144.6"/>
      <line class="st0" x1="59.5" y1="118.9" x2="59.5" y2="144.6"/>
      <path class="st0" d="M291.4,123.2l-41.2-15.2v-37.1h71.2c0-13.5-11-24.5-24.5-24.5h-114s0,109.8,0,109.8"/>
      <line class="st0" x1="303.4" y1="195.3" x2="333.3" y2="195.3"/>
      <path class="st0" d="M327.5,192.6v-49.9c0-7.1-5.7-12.8-12.8-12.8h0v-59.1"/>
      <circle class="st0" cx="256.7" cy="195.3" r="26.5"/>
      <circle class="st0" cx="77" cy="195.3" r="26.5"/>
      <path class="st0" d="M291,164.2c7.3,8.3,11.6,19.2,11.6,31.1"/>
      <path class="st0" d="M221.1,164.2c-7.3,8.3-11.7,19.2-11.7,31.1"/>
      <polyline class="st0" points="5.5 144.6 5.5 195.3 30.6 195.3"/>
      <path class="st0" d="M36,173.4c-3.4,6.6-5.4,14-5.4,22"/>
      <line class="st0" x1="183.9" y1="195.3" x2="209.4" y2="195.3"/>
      <line class="st0" x1="105.7" y1="195.3" x2="129.4" y2="195.3"/>
      <path class="st0" d="M283.9,28.3h0C258.2,7.8,216.9,3.3,184.1,6.4v21.7"/>
      <path class="st0" d="M183.1,179.8v21.4c0,5.6-3.5,10.1-9,10.1h-34.6c-5.6,0-10.1-4.5-10.1-10.1v-21.4"/>
    </g>
  </g>
</svg>