<?xml version="1.0" encoding="UTF-8"?>
<svg id="Calque_2" data-name="Calque 2" xmlns="http://www.w3.org/2000/svg" viewBox="0 0 949.03 946.9">
  <g id="Layer_1" data-name="Layer 1">
    <g>
      <path d="M868.71,946.9H63.68c-35.17,0-63.68-28.51-63.68-63.68v-371.7c0-6.08,4.92-11,11-11h910.39c6.08,0,11,4.92,11,11v371.7c0,35.17-28.51,63.68-63.68,63.68ZM22,522.53v360.7c0,23.02,18.66,41.68,41.68,41.68h805.04c23.02,0,41.68-18.66,41.68-41.68v-360.7H22Z"/>
      <path d="M119.45,317.81c13.6,3.75,24.31,13.77,28.64,26.82l54.88,165.04h23.18l-57.19-171.97c-6.66-20.03-22.98-35.39-43.67-41.09-36.97-10.21-66.29-38.1-78.43-74.63-10.91-32.81-6.34-68.64,11.64-97.52l25.23,75.87c1.24,3.73,4.38,6.52,8.24,7.31l70.78,14.46c3.84.79,7.81-.53,10.42-3.46l48.03-53.98c2.62-2.94,3.46-7.05,2.22-10.78l-25.23-75.86c31.7,12.36,56.82,38.32,67.73,71.13,12.19,36.66,5.36,76.67-18.25,107.02-13.07,16.79-16.93,38.68-10.33,58.54l64.83,194.97h23.18l-67.14-201.91c-4.28-12.87-1.73-27.11,6.81-38.09,28.14-36.17,36.28-83.83,21.77-127.48-15.52-46.68-55.17-81.69-103.49-91.38h0c-8.28-1.66-15.27,6.24-12.6,14.26l29.83,89.71-39.59,44.49-58.35-11.92-29.83-89.72c-2.66-8.01-12.99-10.16-18.63-3.87h0c-32.89,36.69-43.67,88.48-28.15,135.16,14.46,43.5,49.4,76.73,93.46,88.89Z"/>
      <path d="M364.19,509.67h22c0-4.15-.02-8.03-.03-11.59h0c0-2.96-1.21-5.79-3.33-7.85h0c-2.95-2.87-4.57-6.71-4.57-10.82v-22.41c0-8.35,6.77-15.12,15.12-15.12h18.75c5.85,0,10.68-4.58,10.99-10.43l15.02-289.58c.08-1.64-.2-3.27-.82-4.78l-16.71-40.32,17.07-74.77h23.45l17.14,74.9-16.27,40.29c-.6,1.48-.87,3.08-.79,4.67l14.61,289.58c.3,5.85,5.13,10.45,10.99,10.45h19.37c8.35,0,15.12,6.77,15.12,15.12v22.41c0,4.31-1.86,8.43-5.1,11.31h0c-2.35,2.09-3.69,5.08-3.7,8.22v10.72s22,0,22,0v-6.28c5.64-6.66,8.8-15.16,8.8-23.98v-22.41c0-20.5-16.62-37.12-37.12-37.12h-8.91l-13.96-276.71,16.66-41.24c.84-2.09,1.03-4.38.52-6.57l-19.86-86.82c-1.14-5-5.59-8.55-10.72-8.55h-40.99c-5.13,0-9.58,3.55-10.72,8.55l-19.8,86.74c-.51,2.22-.31,4.55.56,6.66l17.1,41.26-14.35,276.67h-8.3c-20.5,0-37.12,16.62-37.12,37.12v22.41c0,8.42,2.78,16.4,7.91,22.9,0,2.34.01,4.79.02,7.35Z"/>
      <path d="M840.43,96.26c-51.53-20.11-83.57-17.89-104.77-16.42-10.76.74-18.54,1.28-24.77-1.15-10.94-4.26-15.8-7.84-16.54-24.21h0c-.2-4.35-2.94-8.17-6.99-9.75l-58.07-22.66c-5.66-2.21-12.04.59-14.25,6.25l-45.32,116.14c-2.21,5.66.59,12.04,6.25,14.25l58.07,22.66c3.47,1.35,7.39.86,10.42-1.31h0c14.38-10.34,23.51-8.82,29.86-6.35,24.26,9.45,39.95,37.19,34.55,51.96l-122.25,284.01h23.95l118.61-275.56.18-.44c10.4-27.31-12.91-67.17-47.05-80.47-14.81-5.77-30.12-3.89-45.59,5.59l-42.5-16.59,37.33-95.65,41.47,16.18c2.9,21.5,14.12,30.3,29.89,36.45,10.82,4.22,21.69,3.46,34.27,2.59,20.39-1.41,48.32-3.34,95.25,14.97,52.31,20.42,87.28,70.79,93.58,132.12-15.32-13.34-31.33-23.46-52.32-30.57-16.59-5.61-37.75-5.3-58.06.86-21.3,6.46-36.71,17.96-42.27,31.55l-.12.29-88.76,258.66h23.26l86.08-250.87c3.06-7.03,14.07-14.3,28.19-18.58,15.78-4.79,32.46-5.19,44.62-1.07,25.95,8.78,42.88,22.82,63.36,44.1h0c6.75,7.02,18.62,2.44,18.92-7.29h0c2.53-82.45-40.05-152.98-108.5-179.69Z"/>
      <g>
        <path d="M871.92,276.63v233.04h-22v-233.04c0-13.86-11.28-25.14-25.15-25.14h-33.34l7.87-22h25.47c26,0,47.15,21.15,47.15,47.14Z"/>
        <polygon points="715.4 229.49 705.73 251.49 478.79 251.49 477.56 229.49 715.4 229.49"/>
        <path d="M420.06,229.49l-1.39,22h-160.57c3.53-6.98,7.66-14.28,12.27-22h149.69Z"/>
        <path d="M82.46,286.19v223.48h-22v-233.04c0-3.21.32-6.34.94-9.37,6.29,7.38,13.47,13.54,21.06,18.93Z"/>
        <path d="M799.63,312.78v196.89h-22v-185.89h-12.05l7.87-22h15.18c6.08,0,11,4.92,11,11Z"/>
        <polygon points="683.64 301.78 673.98 323.78 482.82 323.78 481.59 301.78 683.64 301.78"/>
        <path d="M415.49,301.78l-1.39,22h-163.25c-3.46-7.41-5.36-14.68-5.91-22h170.55Z"/>
        <path d="M154.75,332.89v176.78h-22v-194.55c8.83,5.29,16.52,10.89,22,17.77Z"/>
      </g>
    </g>
  </g>
</svg>